Coordinates
version=1
nRows=11
nColumns=63
inDegrees=yes

Units are S.I. units (second, meters, Newtons, ...)
If the header above contains a line with 'inDegrees', this indicates whether rotational values are in degrees (yes) or radians (no).

endheader
time	pelvis_tilt	pelvis_list	pelvis_rotation	pelvis_tx	pelvis_ty	pelvis_tz	hip_flexion_r	hip_adduction_r	hip_rotation_r	knee_angle_r	knee_angle_r_beta	ankle_angle_r	subtalar_angle_r	mtp_angle_r	hip_flexion_l	hip_adduction_l	hip_rotation_l	knee_angle_l	knee_angle_l_beta	ankle_angle_l	subtalar_angle_l	mtp_angle_l	L5_S1_Flex_Ext	L5_S1_Lat_Bending	L5_S1_axial_rotation	L4_L5_Flex_Ext	L4_L5_Lat_Bending	L4_L5_axial_rotation	L3_L4_Flex_Ext	L3_L4_Lat_Bending	L3_L4_axial_rotation	L2_L3_Flex_Ext	L2_L3_Lat_Bending	L2_L3_axial_rotation	L1_L2_Flex_Ext	L1_L2_Lat_Bending	L1_L2_axial_rotation	L1_T12_Flex_Ext	L1_T12_Lat_Bending	L1_T12_axial_rotation	Abs_r3	Abs_r2	Abs_r1	Abs_t1	Abs_t2	neck_flexion	neck_bending	neck_rotation	arm_flex_r	arm_add_r	arm_rot_r	elbow_flex_r	pro_sup_r	wrist_flex_r	wrist_dev_r	arm_flex_l	arm_add_l	arm_rot_l	elbow_flex_l	pro_sup_l	wrist_flex_l	wrist_dev_l
3.750000	-6.831128	-4.510587	89.907072	0.317596	1.009679	0.555442	0.954981	-7.828468	-14.161452	9.090166	0.158653	29.699314	10.764473	0.000000	4.188552	5.440570	13.380559	8.725088	0.152282	30.416233	3.092304	0.000000	-0.018065	-0.185635	-0.300295	-0.033548	-0.246895	-0.319064	-0.029679	-0.451353	-0.319064	-0.020646	-0.451353	-0.262758	-0.016775	-0.378547	-0.243990	-0.010322	-0.287549	-0.225221	-0.129034	-2.099942	-1.670152	0.000000	0.000000	20.807618	-2.767269	19.847056	12.360616	-15.747604	5.976084	94.978995	49.144940	-4.020083	14.230979	45.036585	-54.862593	-51.909719	134.893122	74.232310	26.990648	-7.475996
3.766667	-6.752875	-4.571752	89.719589	0.318066	1.009208	0.555915	1.090110	-7.686071	-13.465908	8.979191	0.156716	29.940738	10.346172	0.000000	4.272201	5.333828	13.386960	8.651944	0.151005	30.589529	2.736381	0.000000	-0.017988	-0.175139	-0.228293	-0.033405	-0.232935	-0.242561	-0.029552	-0.425833	-0.242561	-0.020558	-0.425833	-0.199756	-0.016704	-0.357144	-0.185488	-0.010278	-0.271290	-0.171219	-0.128486	-1.981209	-1.269695	0.000000	0.000000	21.116666	-3.003987	19.583309	11.914251	-16.092579	5.858384	94.974948	49.349924	-3.943279	14.646487	52.536780	-57.383103	-45.167881	128.822750	75.272891	23.183808	-8.368210
3.783333	-6.672172	-4.641811	89.527463	0.318552	1.008839	0.556520	1.251850	-7.543992	-12.808692	8.875198	0.154901	30.170028	9.971509	0.000000	4.387763	5.215726	13.249199	8.571494	0.149601	30.804749	2.523838	0.000000	-0.019765	-0.166477	-0.150621	-0.036705	-0.221414	-0.160035	-0.032471	-0.404772	-0.160035	-0.022589	-0.404772	-0.131793	-0.018353	-0.339480	-0.122380	-0.011293	-0.257873	-0.112966	-0.141177	-1.883220	-0.837708	0.000000	0.000000	21.433912	-3.266681	19.166023	11.631340	-16.586689	5.816370	94.886159	49.175706	-3.875788	15.030370	61.494151	-59.745571	-36.316621	121.622357	76.137135	18.810430	-9.231476
3.800000	-6.581295	-4.741749	89.323193	0.319040	1.008549	0.557223	1.462132	-7.398408	-12.230090	8.789260	0.153402	30.366548	9.692434	0.000000	4.552404	5.078141	12.961907	8.484493	0.148082	31.049872	2.441792	0.000000	-0.019341	-0.158830	-0.072243	-0.035918	-0.211244	-0.076759	-0.031775	-0.386179	-0.076759	-0.022105	-0.386179	-0.063213	-0.017960	-0.323886	-0.058698	-0.011051	-0.246028	-0.054183	-0.138149	-1.796718	-0.401796	0.000000	0.000000	21.737769	-3.529929	18.641766	11.486040	-17.187977	5.861635	94.711282	48.841302	-3.806314	15.359521	71.472767	-61.807107	-25.811766	113.490233	76.778737	14.229823	-10.014666
3.816667	-6.507159	-4.841828	89.123631	0.319514	1.008353	0.557994	1.683940	-7.277320	-11.726559	8.726646	0.152309	30.540534	9.462426	0.000000	4.747124	4.949779	12.494308	8.426158	0.147064	31.337031	2.576298	0.000000	-0.020612	-0.156673	0.002543	-0.038279	-0.208375	0.002702	-0.033864	-0.380935	0.002702	-0.023558	-0.380935	0.002225	-0.019140	-0.319488	0.002066	-0.011778	-0.242687	0.001907	-0.147231	-1.772319	0.014145	0.000000	0.000000	22.002415	-3.748402	18.003887	11.447319	-17.866327	6.021473	94.461536	48.167504	-3.800835	15.581022	82.156286	-63.416559	-13.829374	104.686657	76.452057	9.636401	-10.870880
3.833333	-6.452926	-4.946381	88.917402	0.319990	1.008237	0.558799	1.926066	-7.189529	-11.346688	8.703982	0.151913	30.704330	9.364823	0.000000	4.962414	4.841000	11.934790	8.377254	0.146211	31.625149	2.794828	0.000000	-0.021887	-0.160046	0.075091	-0.040646	-0.212861	0.079784	-0.035957	-0.389135	0.079784	-0.025014	-0.389135	0.065704	-0.020324	-0.326365	0.061011	-0.012506	-0.247911	0.056318	-0.156333	-1.810468	0.417632	0.000000	0.000000	22.228279	-3.931202	17.259335	11.448755	-18.540671	6.196243	94.168875	47.628227	-3.831834	15.726242	93.068739	-64.515813	-1.148958	95.591554	76.192710	5.313100	-11.750885
3.850000	-6.421912	-5.028364	88.725708	0.320429	1.008220	0.559625	2.151358	-7.139199	-11.098366	8.717962	0.152157	30.861578	9.373745	0.000000	5.177449	4.762196	11.320491	8.360111	0.145911	31.920718	3.090975	0.000000	-0.027321	-0.169919	0.147534	-0.050739	-0.225992	0.156754	-0.044886	-0.413140	0.156754	-0.031226	-0.413140	0.129092	-0.025371	-0.346498	0.119871	-0.015612	-0.263204	0.110650	-0.195155	-1.922152	0.820537	0.000000	0.000000	22.397687	-3.985771	16.414296	11.422902	-19.184688	6.306328	93.877258	47.216502	-3.845151	15.784487	103.928776	-65.084881	11.846844	86.714446	76.218934	1.320793	-12.405807
3.866667	-6.427645	-5.127017	88.531715	0.320899	1.008259	0.560391	2.402475	-7.137598	-10.976872	8.772588	0.153111	31.006594	9.504948	0.000000	5.415497	4.718435	10.597725	8.344448	0.145638	32.190846	3.550815	0.000000	-0.028650	-0.185779	0.195055	-0.053206	-0.247086	0.207246	-0.047069	-0.451702	0.207246	-0.032744	-0.451702	0.170673	-0.026604	-0.378840	0.158482	-0.016371	-0.287771	0.146291	-0.204645	-2.101564	1.084837	0.000000	0.000000	22.545834	-3.954108	15.644640	11.427342	-19.682577	6.455443	93.543879	47.249562	-3.857345	15.842817	114.856565	-65.336120	25.164315	78.456789	76.444971	-2.314339	-13.259562
3.883333	-6.459240	-5.220085	88.340802	0.321318	1.008393	0.561090	2.651803	-7.181005	-11.008777	8.866551	0.154751	31.126924	9.774069	0.000000	5.651329	4.713115	9.877455	8.335023	0.145474	32.414327	4.036081	0.000000	-0.028655	-0.205016	0.231759	-0.053215	-0.272671	0.246244	-0.047077	-0.498475	0.246244	-0.032750	-0.498475	0.202789	-0.026609	-0.418068	0.188304	-0.016373	-0.317569	0.173819	-0.204678	-2.319177	1.288973	0.000000	0.000000	22.645557	-3.845736	14.902153	11.379498	-20.044055	6.518975	93.220607	47.669371	-3.848138	15.903517	125.157602	-65.286457	37.736691	71.289512	76.954755	-5.140474	-13.966812
3.900000	-6.471808	-5.298860	88.144180	0.321611	1.008668	0.561657	2.877738	-7.225286	-11.201331	8.982119	0.156768	31.173720	10.192683	0.000000	5.862799	4.707725	9.243151	8.322713	0.145259	32.569368	4.435385	0.000000	-0.027071	-0.218689	0.274149	-0.050274	-0.290856	0.291284	-0.044475	-0.531720	0.291284	-0.030940	-0.531720	0.239881	-0.025138	-0.445950	0.222746	-0.015469	-0.338749	0.205612	-0.193367	-2.473851	1.524737	0.000000	0.000000	22.660108	-3.753051	14.257032	11.202064	-20.307046	6.401277	92.966677	48.406200	-3.859793	15.990754	133.978166	-64.942096	48.406719	65.646257	77.537775	-6.891433	-14.191453
3.916667	-6.558675	-5.363735	87.951606	0.321976	1.008978	0.562090	3.094046	-7.350671	-11.442257	9.139741	0.159519	31.182902	10.582114	0.000000	6.039995	4.789199	8.735687	8.281216	0.144534	32.634106	4.705339	0.000000	-0.023438	-0.242300	0.277167	-0.043527	-0.322258	0.294490	-0.038507	-0.589127	0.294490	-0.026788	-0.589127	0.242521	-0.021765	-0.494097	0.225198	-0.013393	-0.375322	0.207875	-0.167417	-2.740942	1.541518	0.000000	0.000000	22.673604	-3.539768	13.757068	11.116496	-20.364622	6.414824	92.603531	49.478652	-3.834066	16.100505	142.016340	-64.867508	57.994286	61.703322	78.481437	-8.447635	-14.901588
